<svg width="58" height="68" viewBox="0 0 58 68" fill="none" xmlns="http://www.w3.org/2000/svg">
<path d="M17.1498 33.7749H14.3544L5.39172 49.2318" stroke="black" stroke-miterlimit="10"/>
<path d="M52.7457 49.2318L43.6054 33.7749H32.1859" stroke="black" stroke-miterlimit="10"/>
<path d="M56.198 49.2318H39.7106V53.3396C39.7106 55.4852 38.2358 57.2403 36.4326 57.2403H21.6781C19.9854 57.2403 18.6011 55.5938 18.6011 53.5807V49.2352H2.1573C1.44002 49.2352 0.853455 49.9312 0.853455 50.7867V65.1674C0.853455 66.0127 1.43666 66.7087 2.14724 66.7087H56.198C56.7209 66.7087 57.1466 66.2029 57.1466 65.5816V50.3691C57.1466 49.7444 56.7209 49.2386 56.1947 49.2386L56.198 49.2318Z" stroke="black" stroke-miterlimit="10"/>
<path d="M16.4895 30.5497H12.4942C12.4942 30.5497 0.846741 49.7138 0.846741 50.2231V64.9433C0.846741 65.7886 1.44001 66.875 2.15058 66.875H56.2014C56.7242 66.875 57.1533 65.9787 57.1533 65.3575V50.145C57.1533 49.7953 45.5829 30.5497 45.5829 30.5497H42.7909" stroke="black" stroke-linejoin="round"/>
<path d="M32.1858 23.7195H27.5905V42.7987H23.0824L29.8899 50.0876L36.6973 42.7987H32.1858V31.8129V23.7195Z" stroke="black" stroke-miterlimit="10"/>
<path d="M27.5906 34.6745L18.1754 37.2478L10.3289 7.82094L35.7186 0.875L43.5651 30.3053L32.1859 33.4184" stroke="black" stroke-linejoin="round"/>
<path d="M14.0862 12.0476L34.8673 6.27625" stroke="black" stroke-miterlimit="10"/>
<path d="M15.4672 17.2214L36.2482 11.4501" stroke="black" stroke-miterlimit="10"/>
<path d="M16.7878 22.3986L37.5688 16.6273" stroke="black" stroke-miterlimit="10"/>
<path d="M32.1859 23.6852L38.9531 21.8044" stroke="black" stroke-miterlimit="10"/>
<path d="M18.1721 27.5757L27.5906 24.9617" stroke="black" stroke-miterlimit="10"/>
</svg>
